# xmcd
#
# Track frame offsets: 
#        150
#        10313
#        19353
#        29477
#        42693
#        53436
#        69879
#
# Disc length: 1165 seconds
#
# Revision: 1
# Processed by: cddbd v1.5.2PL0 Copyright (c) Steve Scherf et al.
# Submitted via: ExactAudioCopyFreeDBPlugin 1.0
#
DISCID=56048b07
DTITLE=Matt Anderson - One Size Never Fits
DYEAR=2004
DGENRE=Acoustic
TTITLE0=If I Can't Have You
TTITLE1=One Size Never Fits
TTITLE2=Too Long Since
TTITLE3=Lay Down With Me
TTITLE4=Just Don't Call Me Your Friend
TTITLE5=It Hurts Me Too
TTITLE6=Red House
EXTD=
EXTT0=
EXTT1=
EXTT2=
EXTT3=
EXTT4=
EXTT5=
EXTT6=
PLAYORDER=
